<?xml version="1.0" encoding="UTF-8" standalone="no"?>
<!-- Created with Inkscape (http://www.inkscape.org/) -->

<svg
   xmlns:dc="http://purl.org/dc/elements/1.1/"
   xmlns:cc="http://creativecommons.org/ns#"
   xmlns:rdf="http://www.w3.org/1999/02/22-rdf-syntax-ns#"
   xmlns:svg="http://www.w3.org/2000/svg"
   xmlns="http://www.w3.org/2000/svg"
   xmlns:xlink="http://www.w3.org/1999/xlink"
   xmlns:sodipodi="http://sodipodi.sourceforge.net/DTD/sodipodi-0.dtd"
   xmlns:inkscape="http://www.inkscape.org/namespaces/inkscape"
   width="512"
   height="512"
   viewBox="0 0 135.46668 135.46667"
   version="1.1"
   id="svg8"
   inkscape:version="0.92.1 r"
   sodipodi:docname="netflix-penguin.svg">
  <defs
     id="defs2">
    <linearGradient
       inkscape:collect="always"
       id="linearGradient4986">
      <stop
         style="stop-color:#ff3232;stop-opacity:1"
         offset="0"
         id="stop4982" />
      <stop
         style="stop-color:#ff0505;stop-opacity:1"
         offset="1"
         id="stop4984" />
    </linearGradient>
    <linearGradient
       inkscape:collect="always"
       id="linearGradient4965">
      <stop
         style="stop-color:#ff0000;stop-opacity:1;"
         offset="0"
         id="stop4961" />
      <stop
         style="stop-color:#f50000;stop-opacity:1"
         offset="1"
         id="stop4963" />
    </linearGradient>
    <linearGradient
       inkscape:collect="always"
       id="linearGradient4957">
      <stop
         style="stop-color:#ff0000;stop-opacity:1;"
         offset="0"
         id="stop4953" />
      <stop
         style="stop-color:#e00000;stop-opacity:1"
         offset="1"
         id="stop4955" />
    </linearGradient>
    <linearGradient
       inkscape:collect="always"
       xlink:href="#linearGradient4957"
       id="linearGradient4959"
       x1="40.758709"
       y1="166.26933"
       x2="92.243248"
       y2="293.22235"
       gradientUnits="userSpaceOnUse" />
    <radialGradient
       inkscape:collect="always"
       xlink:href="#linearGradient4965"
       id="radialGradient4967"
       cx="35.631344"
       cy="199.14346"
       fx="35.631344"
       fy="199.14346"
       r="54.449182"
       gradientUnits="userSpaceOnUse"
       gradientTransform="matrix(-1.2165564,1.2747479,-1.6223794,-1.5483186,402.06514,462.06001)" />
    <linearGradient
       inkscape:collect="always"
       xlink:href="#linearGradient4965"
       id="linearGradient4980"
       x1="296.72739"
       y1="459.83875"
       x2="296.72739"
       y2="221.26733"
       gradientUnits="userSpaceOnUse" />
    <linearGradient
       inkscape:collect="always"
       xlink:href="#linearGradient4986"
       id="linearGradient4988"
       x1="80.444298"
       y1="286.80789"
       x2="61.77845"
       y2="171.74835"
       gradientUnits="userSpaceOnUse" />
  </defs>
  <sodipodi:namedview
     id="base"
     pagecolor="#ffffff"
     bordercolor="#666666"
     borderopacity="1.0"
     inkscape:pageopacity="0.0"
     inkscape:pageshadow="2"
     inkscape:zoom="0.7"
     inkscape:cx="65.556162"
     inkscape:cy="291.80293"
     inkscape:document-units="mm"
     inkscape:current-layer="layer1"
     showgrid="false"
     units="px"
     inkscape:showpageshadow="false"
     borderlayer="true"
     inkscape:snap-global="false"
     inkscape:window-width="1366"
     inkscape:window-height="741"
     inkscape:window-x="0"
     inkscape:window-y="27"
     inkscape:window-maximized="1"
     inkscape:object-paths="true"
     inkscape:snap-nodes="true"
     inkscape:measure-start="604.071,187.888"
     inkscape:measure-end="619.224,180.817" />
  <metadata
     id="metadata5">
    <rdf:RDF>
      <cc:Work
         rdf:about="">
        <dc:format>image/svg+xml</dc:format>
        <dc:type
           rdf:resource="http://purl.org/dc/dcmitype/StillImage" />
        <dc:title />
      </cc:Work>
    </rdf:RDF>
  </metadata>
  <g
     inkscape:label="Capa 1"
     inkscape:groupmode="layer"
     id="layer1"
     transform="translate(0,-161.53332)"
     style="display:inline">
    <rect
       id="rect29"
       width="118.85902"
       height="118.85902"
       x="9.3432608"
       y="169.64815"
       style="fill:url(#linearGradient4959);stroke:#ff0000;stroke-width:0.24470972;fill-opacity:1"
       rx="7.5926199"
       ry="7.5926199" />
    <rect
       ry="7.3034773"
       rx="7.3034773"
       style="fill:url(#linearGradient4988);stroke:#ff0000;stroke-width:0.23539066;fill-opacity:1"
       y="171.91135"
       x="11.606459"
       height="114.33262"
       width="114.33262"
       id="rect4947" />
    <rect
       id="rect4949"
       width="108.67462"
       height="108.67462"
       x="14.435455"
       y="174.74034"
       style="fill:url(#radialGradient4967);stroke:#ff0000;stroke-width:0.22374186;fill-opacity:1"
       rx="6.942049"
       ry="6.942049" />
    <path
       style="fill:url(#linearGradient4980);fill-rule:evenodd;stroke:none;stroke-width:0.99999994px;stroke-linecap:butt;stroke-linejoin:miter;stroke-opacity:1;fill-opacity:1"
       d="M 266.86914 216.16797 C 191.84776 216.34627 122.22646 228.94769 54.558594 246.03906 L 54.558594 434.41797 C 54.558594 448.95364 66.261208 460.6543 80.796875 460.6543 L 439.06055 460.6543 C 453.59621 460.6543 465.29883 448.95364 465.29883 434.41797 L 465.29883 245.48828 C 394.20669 224.3337 328.69974 216.02102 266.86914 216.16797 z "
       transform="matrix(0.26458333,0,0,0.26458333,0,161.53332)"
       id="path4969" />
    <g
       id="g4945"
       transform="translate(-0.87648678,3.0488871)">
      <path
         sodipodi:nodetypes="sssccccccscccs"
         inkscape:connector-curvature="0"
         id="path18-3"
         d="M 297.25391,78.53125 261.67419,99.800919 C 174.31898,152.02214 127.87509,261.60788 127.92129,267.91095 l 0.91855,125.31757 c 1.50943,5.98724 2.79531,12.06391 13.57813,14.34179 l 63.38672,3.80664 42.25786,2.53711 115.36328,6.21485 c 4.01943,0.21664 7.94695,-1.2537 10.83594,-4.05664 42.09363,-40.84334 44.51289,-93.44756 34.14258,-135.72071 -10.37032,-42.27315 -32.33017,-76.20675 -41.06446,-88.55078 -16.70022,-31.63136 19.45221,-53.83848 39.625,-72.53711 6.27558,-5.81739 6.14661,-15.78444 -0.27739,-21.437498 C 376.025,72.542793 331.54598,58.03134 297.25391,78.53125 Z"
         style="fill:#000000;fill-rule:evenodd;stroke:none;stroke-width:2.49502659px;stroke-linecap:butt;stroke-linejoin:miter;stroke-opacity:1"
         transform="matrix(0.26458333,0,0,0.26458333,0,161.53332)" />
      <path
         sodipodi:nodetypes="cccc"
         inkscape:connector-curvature="0"
         id="path18"
         d="m 94.278847,184.40242 0.699107,15.24542 10.100396,-9.36207 c -4.72471,-4.15773 -10.799503,-5.88335 -10.799503,-5.88335 z"
         style="fill:#ffcc00;fill-rule:evenodd;stroke:none;stroke-width:0.66014242px;stroke-linecap:butt;stroke-linejoin:miter;stroke-opacity:1" />
      <path
         style="font-style:normal;font-variant:normal;font-weight:bold;font-stretch:normal;font-size:medium;line-height:125%;font-family:Roboto;-inkscape-font-specification:'Roboto Bold';letter-spacing:0px;word-spacing:0px;opacity:1;vector-effect:none;fill:#f9f9f9;fill-opacity:1;stroke:none;stroke-width:3.76165509px;stroke-linecap:butt;stroke-linejoin:miter;stroke-miterlimit:4;stroke-dasharray:none;stroke-dashoffset:0;stroke-opacity:1"
         d="m 65.838777,267.2322 -11.198999,-15.20834 0.04148,14.53831 -16.770923,-1.00712 -0.176363,-33.02329 17.075614,-17.33679 12.45314,16.50615 c 11.565012,15.32899 15.649692,22.61862 20.770362,18.04758 L 70.27329,191.70933 c 11.870048,-6.82506 12.662228,-9.34558 24.232346,-7.2563 l 0.690836,14.9881 c -0.670936,0.80873 -5.369917,9.04632 -1.124147,15.04682 4.24577,6.00048 22.385415,34.88994 2.289598,54.38886 z"
         id="path24"
         inkscape:connector-curvature="0"
         sodipodi:nodetypes="ccccccscccczcc" />
      <circle
         r="4.5906992"
         cy="189.90907"
         cx="85.748352"
         id="path3709"
         style="fill:#000000;stroke:none;stroke-width:0.40168619" />
      <path
         sodipodi:nodetypes="accca"
         inkscape:connector-curvature="0"
         id="path3911"
         d="m 89.938604,260.10996 c -4.181493,0.55719 -8.047841,3.61015 -8.714506,9.1769 l 15.586128,0.83974 c 1.268229,-1.23056 2.383237,-2.49839 3.360004,-3.79563 -2.247778,-3.14188 -6.275118,-6.74822 -10.231626,-6.22101 z"
         style="fill:#ffcc00;fill-rule:evenodd;stroke:#000000;stroke-width:2.1169312;stroke-linecap:round;stroke-linejoin:round;stroke-miterlimit:4;stroke-dasharray:none;stroke-opacity:1" />
      <path
         inkscape:connector-curvature="0"
         id="path4718"
         d="m 94.078874,183.00953 1.202711,19.37704"
         style="fill:none;fill-rule:evenodd;stroke:#000000;stroke-width:2.11666656;stroke-linecap:butt;stroke-linejoin:miter;stroke-miterlimit:4;stroke-dasharray:none;stroke-opacity:1" />
    </g>
  </g>
</svg>
