<?xml version="1.0" encoding="UTF-8" standalone="no"?>
<!-- Created with Inkscape (http://www.inkscape.org/) -->

<svg
   xmlns:dc="http://purl.org/dc/elements/1.1/"
   xmlns:cc="http://creativecommons.org/ns#"
   xmlns:rdf="http://www.w3.org/1999/02/22-rdf-syntax-ns#"
   xmlns:svg="http://www.w3.org/2000/svg"
   xmlns="http://www.w3.org/2000/svg"
   xmlns:xlink="http://www.w3.org/1999/xlink"
   xmlns:sodipodi="http://sodipodi.sourceforge.net/DTD/sodipodi-0.dtd"
   xmlns:inkscape="http://www.inkscape.org/namespaces/inkscape"
   width="512"
   height="512"
   viewBox="0 0 135.46668 135.46667"
   version="1.1"
   id="svg8"
   inkscape:version="0.92.1 r"
   sodipodi:docname="netflix-penguin.svg">
  <defs
     id="defs2">
    <linearGradient
       inkscape:collect="always"
       id="linearGradient4986">
      <stop
         style="stop-color:#ff3232;stop-opacity:1"
         offset="0"
         id="stop4982" />
      <stop
         style="stop-color:#ff0505;stop-opacity:1"
         offset="1"
         id="stop4984" />
    </linearGradient>
    <linearGradient
       inkscape:collect="always"
       id="linearGradient4965">
      <stop
         style="stop-color:#ff0000;stop-opacity:1;"
         offset="0"
         id="stop4961" />
      <stop
         style="stop-color:#f50000;stop-opacity:1"
         offset="1"
         id="stop4963" />
    </linearGradient>
    <linearGradient
       inkscape:collect="always"
       id="linearGradient4957">
      <stop
         style="stop-color:#ff0000;stop-opacity:1;"
         offset="0"
         id="stop4953" />
      <stop
         style="stop-color:#e00000;stop-opacity:1"
         offset="1"
         id="stop4955" />
    </linearGradient>
    <linearGradient
       inkscape:collect="always"
       xlink:href="#linearGradient4957"
       id="linearGradient4959"
       x1="40.758709"
       y1="166.26933"
       x2="92.243248"
       y2="293.22235"
       gradientUnits="userSpaceOnUse"
       gradientTransform="matrix(1.0507761,0,0,1.0507761,-3.4920109,-11.631663)" />
    <radialGradient
       inkscape:collect="always"
       xlink:href="#linearGradient4965"
       id="radialGradient4967"
       cx="35.631344"
       cy="199.14346"
       fx="35.631344"
       fy="199.14346"
       r="54.449182"
       gradientUnits="userSpaceOnUse"
       gradientTransform="matrix(-1.2783284,1.3394746,-1.7047575,-1.6269362,418.98843,473.88995)" />
    <linearGradient
       inkscape:collect="always"
       xlink:href="#linearGradient4965"
       id="linearGradient4980"
       x1="296.72739"
       y1="459.83875"
       x2="296.72739"
       y2="221.26733"
       gradientUnits="userSpaceOnUse"
       gradientTransform="matrix(0.27801783,0,0,0.27801783,-3.4920109,158.10368)" />
    <linearGradient
       inkscape:collect="always"
       xlink:href="#linearGradient4986"
       id="linearGradient4988"
       x1="80.444298"
       y1="286.80789"
       x2="61.77845"
       y2="171.74835"
       gradientUnits="userSpaceOnUse"
       gradientTransform="matrix(1.0507761,0,0,1.0507761,-3.4920109,-11.631663)" />
  </defs>
  <sodipodi:namedview
     id="base"
     pagecolor="#ffffff"
     bordercolor="#666666"
     borderopacity="1.0"
     inkscape:pageopacity="0.0"
     inkscape:pageshadow="2"
     inkscape:zoom="0.7"
     inkscape:cx="295.69799"
     inkscape:cy="261.4204"
     inkscape:document-units="mm"
     inkscape:current-layer="layer1"
     showgrid="false"
     units="px"
     inkscape:showpageshadow="false"
     borderlayer="true"
     inkscape:snap-global="false"
     inkscape:window-width="1366"
     inkscape:window-height="741"
     inkscape:window-x="0"
     inkscape:window-y="27"
     inkscape:window-maximized="1"
     inkscape:object-paths="true"
     inkscape:snap-nodes="true"
     inkscape:measure-start="604.071,187.888"
     inkscape:measure-end="619.224,180.817" />
  <metadata
     id="metadata5">
    <rdf:RDF>
      <cc:Work
         rdf:about="">
        <dc:format>image/svg+xml</dc:format>
        <dc:type
           rdf:resource="http://purl.org/dc/dcmitype/StillImage" />
        <dc:title />
      </cc:Work>
    </rdf:RDF>
  </metadata>
  <g
     inkscape:label="Capa 1"
     inkscape:groupmode="layer"
     id="layer1"
     transform="translate(0,-161.53332)"
     style="display:inline">
    <rect
       id="rect29"
       width="124.89421"
       height="124.89421"
       x="6.325664"
       y="166.63055"
       style="fill:url(#linearGradient4959);fill-opacity:1;stroke:#ff0000;stroke-width:0.25713512"
       rx="15.546722"
       ry="15.546722" />
    <rect
       ry="16.71525"
       rx="16.71525"
       style="fill:url(#linearGradient4988);fill-opacity:1;stroke:#ff0000;stroke-width:0.24734287"
       y="169.00867"
       x="8.7037783"
       height="120.13798"
       width="120.13798"
       id="rect4947" />
    <rect
       id="rect4949"
       width="114.19269"
       height="114.19269"
       x="11.67642"
       y="171.98131"
       style="fill:url(#radialGradient4967);fill-opacity:1;stroke:#ff0000;stroke-width:0.23510259"
       rx="15.619255"
       ry="15.619255" />
    <path
       style="fill:url(#linearGradient4980);fill-opacity:1;fill-rule:evenodd;stroke:none;stroke-width:0.27801782px;stroke-linecap:butt;stroke-linejoin:miter;stroke-opacity:1"
       d="m 70.702369,218.20223 c -20.857282,0.0496 -40.213245,3.55299 -59.026118,8.3047 v 52.3727 c 0,4.04117 3.253535,7.29416 7.29471,7.29416 h 99.603689 c 4.04117,0 7.29471,-3.25299 7.29471,-7.29416 V 226.3538 c -19.76488,-5.88135 -37.976982,-8.19242 -55.166991,-8.15157 z"
       id="path4969"
       inkscape:connector-curvature="0" />
    <g
       id="g4945"
       transform="matrix(1.1987533,0,0,1.1987533,-15.013148,-41.903044)">
      <path
         sodipodi:nodetypes="sssccccccscccs"
         inkscape:connector-curvature="0"
         id="path18-3"
         d="M 297.25391,78.53125 261.67419,99.800919 C 174.31898,152.02214 127.87509,261.60788 127.92129,267.91095 l 0.91855,125.31757 c 1.50943,5.98724 2.79531,12.06391 13.57813,14.34179 l 63.38672,3.80664 42.25786,2.53711 115.36328,6.21485 c 4.01943,0.21664 7.94695,-1.2537 10.83594,-4.05664 42.09363,-40.84334 44.51289,-93.44756 34.14258,-135.72071 -10.37032,-42.27315 -32.33017,-76.20675 -41.06446,-88.55078 -16.70022,-31.63136 19.45221,-53.83848 39.625,-72.53711 6.27558,-5.81739 6.14661,-15.78444 -0.27739,-21.437498 C 376.025,72.542793 331.54598,58.03134 297.25391,78.53125 Z"
         style="fill:#000000;fill-rule:evenodd;stroke:none;stroke-width:2.49502659px;stroke-linecap:butt;stroke-linejoin:miter;stroke-opacity:1"
         transform="matrix(0.26458333,0,0,0.26458333,0,161.53332)" />
      <path
         sodipodi:nodetypes="cccc"
         inkscape:connector-curvature="0"
         id="path18"
         d="m 94.278847,184.40242 0.699107,15.24542 10.100396,-9.36207 c -4.72471,-4.15773 -10.799503,-5.88335 -10.799503,-5.88335 z"
         style="fill:#ffffff;fill-rule:evenodd;stroke:none;stroke-width:0.66014242px;stroke-linecap:butt;stroke-linejoin:miter;stroke-opacity:1" />
      <path
         style="font-style:normal;font-variant:normal;font-weight:bold;font-stretch:normal;font-size:medium;line-height:125%;font-family:Roboto;-inkscape-font-specification:'Roboto Bold';letter-spacing:0px;word-spacing:0px;opacity:1;vector-effect:none;fill:#f9f9f9;fill-opacity:1;stroke:none;stroke-width:14.21727943px;stroke-linecap:butt;stroke-linejoin:miter;stroke-miterlimit:4;stroke-dasharray:none;stroke-dashoffset:0;stroke-opacity:1"
         d="m 330.16016,95.455078 c -23.32856,-0.257184 -32.8237,9.966402 -67.87305,30.119142 l 67.12305,219.36133 c -19.35372,17.27637 -34.79168,-10.2746 -78.50196,-68.21094 l -47.0664,-62.38477 -64.53711,65.52344 0.66601,124.8125 63.38672,3.80664 -0.1582,-54.94726 42.32812,57.48046 115.36328,6.21485 c 75.9527,-73.69671 7.39271,-182.88547 -8.65429,-205.56445 -16.04701,-22.67906 1.71222,-53.81253 4.24805,-56.86914 l -2.61133,-56.648442 c -9.56585,-1.727358 -17.1809,-2.621348 -23.71289,-2.69336 z"
         transform="matrix(0.26458333,0,0,0.26458333,0.87648678,158.48443)"
         id="path24"
         inkscape:connector-curvature="0" />
      <circle
         r="4.5906992"
         cy="192.36592"
         cx="89.150139"
         id="path3709"
         style="fill:#000000;stroke:none;stroke-width:0.40168619" />
    </g>
  </g>
</svg>
