<?xml version="1.0" encoding="UTF-8" standalone="no"?>
<!-- Created with Inkscape (http://www.inkscape.org/) -->

<svg
   xmlns:dc="http://purl.org/dc/elements/1.1/"
   xmlns:cc="http://creativecommons.org/ns#"
   xmlns:rdf="http://www.w3.org/1999/02/22-rdf-syntax-ns#"
   xmlns:svg="http://www.w3.org/2000/svg"
   xmlns="http://www.w3.org/2000/svg"
   xmlns:xlink="http://www.w3.org/1999/xlink"
   xmlns:sodipodi="http://sodipodi.sourceforge.net/DTD/sodipodi-0.dtd"
   xmlns:inkscape="http://www.inkscape.org/namespaces/inkscape"
   width="512"
   height="512"
   viewBox="0 0 135.46668 135.46667"
   version="1.1"
   id="svg8"
   inkscape:version="0.92.1 r"
   sodipodi:docname="netflix-penguin.svg">
  <defs
     id="defs2">
    <linearGradient
       inkscape:collect="always"
       id="linearGradient4986">
      <stop
         style="stop-color:#ff3232;stop-opacity:1"
         offset="0"
         id="stop4982" />
      <stop
         style="stop-color:#ff0505;stop-opacity:1"
         offset="1"
         id="stop4984" />
    </linearGradient>
    <linearGradient
       inkscape:collect="always"
       id="linearGradient4965">
      <stop
         style="stop-color:#ff0000;stop-opacity:1;"
         offset="0"
         id="stop4961" />
      <stop
         style="stop-color:#f50000;stop-opacity:1"
         offset="1"
         id="stop4963" />
    </linearGradient>
    <linearGradient
       inkscape:collect="always"
       id="linearGradient4957">
      <stop
         style="stop-color:#ff0000;stop-opacity:1;"
         offset="0"
         id="stop4953" />
      <stop
         style="stop-color:#e00000;stop-opacity:1"
         offset="1"
         id="stop4955" />
    </linearGradient>
    <linearGradient
       inkscape:collect="always"
       xlink:href="#linearGradient4957"
       id="linearGradient4959"
       x1="40.758709"
       y1="166.26933"
       x2="92.243248"
       y2="293.22235"
       gradientUnits="userSpaceOnUse"
       gradientTransform="matrix(1.0507761,0,0,1.0507761,-3.4920109,-11.631663)" />
    <radialGradient
       inkscape:collect="always"
       xlink:href="#linearGradient4965"
       id="radialGradient4967"
       cx="35.631344"
       cy="199.14346"
       fx="35.631344"
       fy="199.14346"
       r="54.449182"
       gradientUnits="userSpaceOnUse"
       gradientTransform="matrix(-1.2783284,1.3394746,-1.7047575,-1.6269362,418.98843,473.88995)" />
    <linearGradient
       inkscape:collect="always"
       xlink:href="#linearGradient4965"
       id="linearGradient4980"
       x1="296.72739"
       y1="459.83875"
       x2="296.72739"
       y2="221.26733"
       gradientUnits="userSpaceOnUse"
       gradientTransform="matrix(0.27801783,0,0,0.27801783,-3.4920109,158.10368)" />
    <linearGradient
       inkscape:collect="always"
       xlink:href="#linearGradient4986"
       id="linearGradient4988"
       x1="80.444298"
       y1="286.80789"
       x2="61.77845"
       y2="171.74835"
       gradientUnits="userSpaceOnUse"
       gradientTransform="matrix(1.0507761,0,0,1.0507761,-3.4920109,-11.631663)" />
  </defs>
  <sodipodi:namedview
     id="base"
     pagecolor="#ffffff"
     bordercolor="#666666"
     borderopacity="1.0"
     inkscape:pageopacity="0.0"
     inkscape:pageshadow="2"
     inkscape:zoom="1.979899"
     inkscape:cx="214.02121"
     inkscape:cy="237.82566"
     inkscape:document-units="mm"
     inkscape:current-layer="layer1"
     showgrid="false"
     units="px"
     inkscape:showpageshadow="false"
     borderlayer="true"
     inkscape:snap-global="true"
     inkscape:window-width="1366"
     inkscape:window-height="741"
     inkscape:window-x="0"
     inkscape:window-y="27"
     inkscape:window-maximized="1"
     inkscape:object-paths="true"
     inkscape:snap-nodes="true"
     inkscape:measure-start="604.071,187.888"
     inkscape:measure-end="619.224,180.817"
     inkscape:snap-smooth-nodes="false" />
  <metadata
     id="metadata5">
    <rdf:RDF>
      <cc:Work
         rdf:about="">
        <dc:format>image/svg+xml</dc:format>
        <dc:type
           rdf:resource="http://purl.org/dc/dcmitype/StillImage" />
        <dc:title />
      </cc:Work>
    </rdf:RDF>
  </metadata>
  <g
     inkscape:label="Capa 1"
     inkscape:groupmode="layer"
     id="layer1"
     transform="translate(0,-161.53332)"
     style="display:inline">
    <rect
       id="rect29"
       width="124.89421"
       height="124.89421"
       x="6.325664"
       y="166.63055"
       style="fill:url(#linearGradient4959);fill-opacity:1;stroke:#ff0000;stroke-width:0.25713512"
       rx="15.546722"
       ry="15.546722" />
    <rect
       ry="16.71525"
       rx="16.71525"
       style="fill:url(#linearGradient4988);fill-opacity:1;stroke:#ff0000;stroke-width:0.24734287"
       y="169.00867"
       x="8.7037783"
       height="120.13798"
       width="120.13798"
       id="rect4947" />
    <rect
       id="rect4949"
       width="114.19269"
       height="114.19269"
       x="11.67642"
       y="171.98131"
       style="fill:url(#radialGradient4967);fill-opacity:1;stroke:#ff0000;stroke-width:0.23510259"
       rx="15.619255"
       ry="15.619255" />
    <path
       style="fill:url(#linearGradient4980);fill-opacity:1;fill-rule:evenodd;stroke:none;stroke-width:0.27801782px;stroke-linecap:butt;stroke-linejoin:miter;stroke-opacity:1"
       d="m 70.702369,218.20223 c -20.857282,0.0496 -40.213245,3.55299 -59.026118,8.3047 v 52.3727 c 0,4.04117 3.253535,7.29416 7.29471,7.29416 h 99.603689 c 4.04117,0 7.29471,-3.25299 7.29471,-7.29416 V 226.3538 c -19.76488,-5.88135 -37.976982,-8.19242 -55.166991,-8.15157 z"
       id="path4969"
       inkscape:connector-curvature="0" />
    <g
       id="g4945"
       transform="matrix(1.2443513,0,0,1.2443513,-19.792992,-52.171068)">
      <path
         sodipodi:type="inkscape:offset"
         inkscape:radius="13.245444"
         inkscape:original="M 345.86328 56.439453 C 316.83518 56.051868 285.35922 79.326646 261.40625 93.917969 C 176.69889 144.68256 108.27273 267.11059 108.37305 285.9082 L 108.15234 446.28516 L 187.79883 446.28516 L 240.82812 446.28516 L 384.10352 446.28516 C 478.61535 354.58056 393.30209 229.26757 373.33398 201.04688 C 353.44131 172.93279 374.74484 133.89553 378.57031 130.34961 L 425.0957 87.222656 C 400.49183 66.052711 375.57604 56.836179 345.86328 56.439453 z "
         style="fill:#000000;fill-opacity:0.09900991;fill-rule:evenodd;stroke:none;stroke-width:1.0380379px;stroke-linecap:butt;stroke-linejoin:miter;stroke-opacity:1"
         id="path5102"
         d="m 346.04102,43.195312 c -36.23417,-0.4838 -68.51405,25.392441 -91.5254,39.410157 l 0.082,-0.04883 c -45.03197,26.987369 -83.98408,71.458519 -112.33985,111.716799 -14.17788,20.12914 -25.63643,39.20516 -33.68945,54.7539 -4.02651,7.77438 -7.20073,14.64778 -9.478516,20.54297 -2.27779,5.89519 -3.997078,10.00236 -3.962891,16.40821 L 94.90625,446.26758 a 13.246769,13.246769 0 0 0 13.24609,13.26367 h 79.64649 53.02929 143.2754 a 13.246769,13.246769 0 0 0 9.2246,-3.74023 c 50.84941,-49.33906 53.88679,-110.10678 41.14258,-159.25586 -12.7442,-49.14909 -40.13816,-88.74285 -50.32422,-103.13868 -6.98899,-9.87747 -7.00226,-22.27171 -4.21484,-33.79687 1.39371,-5.76258 3.47825,-11.06084 5.33203,-14.89258 0.92689,-1.91587 1.802,-3.47485 2.41211,-4.45508 0.28985,-0.46568 0.64724,-0.85881 0.78125,-1.00586 L 434.09961,96.9375 A 13.246769,13.246769 0 0 0 433.73438,77.181641 C 407.21997,54.367811 378.39325,43.627281 346.04102,43.195312 Z"
         transform="matrix(0.21262752,0,0,0.21262752,14.691259,171.73959)" />
      <path
         style="fill:#000000;fill-rule:evenodd;stroke:none;stroke-width:0.22071542px;stroke-linecap:butt;stroke-linejoin:miter;stroke-opacity:1"
         d="m 37.734187,232.53159 c -0.01224,-3.99693 14.527984,-30.02837 32.539099,-40.82232 l 5.986262,-3.58753 15.707888,78.51047 H 54.622355 l -16.85343,-22.75758 z"
         id="path5082"
         inkscape:connector-curvature="0"
         sodipodi:nodetypes="ssccccs" />
      <path
         style="fill:#ffffff;fill-rule:evenodd;stroke:none;stroke-width:2.99092126px;stroke-linecap:butt;stroke-linejoin:miter;stroke-opacity:1"
         d="M 343.00977,63.582031 C 315.04537,63.208649 284.72172,85.630862 261.64648,99.6875 l 63.86978,208.95041 c 16.52058,54.04719 -5.82005,65.19075 -5.82005,65.19075 L 191.58398,244.86039 114.2207,296.36328 114.00938,439.14287 h 76.72667 l 0.0784,-66.18584 64.63254,66.18584 h 124.40067 c 91.04854,-88.34417 8.86139,-209.06567 -10.375,-236.25225 -19.16373,-27.08386 1.35963,-64.69144 5.04492,-68.10742 L 419.33789,93.238281 C 395.6356,72.844087 371.63373,63.964219 343.00977,63.582031 Z"
         transform="matrix(0.22071542,0,0,0.22071542,12.523968,169.70661)"
         id="path18"
         inkscape:connector-curvature="0"
         sodipodi:nodetypes="scsccccccccsscs" />
      <circle
         r="4.5906992"
         cy="192.36592"
         cx="89.150139"
         id="path3709"
         style="fill:#000000;stroke:none;stroke-width:0.40168619" />
    </g>
  </g>
</svg>
